<?xml version="1.0" encoding="UTF-8" standalone="no"?>
<!DOCTYPE svg PUBLIC "-//W3C//DTD SVG 1.1//EN"
 "http://www.w3.org/Graphics/SVG/1.1/DTD/svg11.dtd">
<!-- Generated by graphviz version 12.1.1 (20240910.0053)
 -->
<!-- Title: INFRA Pages: 1 -->
<svg width="146pt" height="296pt"
 viewBox="0.00 0.00 146.15 296.00" xmlns="http://www.w3.org/2000/svg" xmlns:xlink="http://www.w3.org/1999/xlink">
<g id="graph0" class="graph" transform="scale(1 1) rotate(0) translate(4 292)">
<title>INFRA</title>
<polygon fill="white" stroke="none" points="-4,4 -4,-292 142.15,-292 142.15,4 -4,4"/>
<!-- container&#45;pg -->
<g id="node1" class="node">
<title>container&#45;pg</title>
<path fill="#ffcfb3" stroke="black" stroke-width="2" d="M138.15,-173.45C138.15,-177.07 107.19,-180 69.08,-180 30.96,-180 0,-177.07 0,-173.45 0,-173.45 0,-114.55 0,-114.55 0,-110.93 30.96,-108 69.08,-108 107.19,-108 138.15,-110.93 138.15,-114.55 138.15,-114.55 138.15,-173.45 138.15,-173.45"/>
<path fill="none" stroke="black" stroke-width="2" d="M138.15,-173.45C138.15,-169.84 107.19,-166.91 69.08,-166.91 30.96,-166.91 0,-169.84 0,-173.45"/>
<text text-anchor="middle" x="69.08" y="-148.2" font-family="Arial" font-size="14.00">container&#45;pg</text>
<text text-anchor="middle" x="69.08" y="-131.4" font-family="Arial" font-size="14.00">(Docker::Container)</text>
</g>
<!-- postgres&#45;data -->
<g id="node3" class="node">
<title>postgres&#45;data</title>
<path fill="#fff5cd" stroke="black" stroke-width="2" d="M131.53,-65.45C131.53,-69.07 103.54,-72 69.08,-72 34.61,-72 6.62,-69.07 6.62,-65.45 6.62,-65.45 6.62,-6.55 6.62,-6.55 6.62,-2.93 34.61,0 69.08,0 103.54,0 131.53,-2.93 131.53,-6.55 131.53,-6.55 131.53,-65.45 131.53,-65.45"/>
<path fill="none" stroke="black" stroke-width="2" d="M131.53,-65.45C131.53,-61.84 103.54,-58.91 69.08,-58.91 34.61,-58.91 6.62,-61.84 6.62,-65.45"/>
<text text-anchor="middle" x="69.08" y="-40.2" font-family="Arial" font-size="14.00">postgres&#45;data</text>
<text text-anchor="middle" x="69.08" y="-23.4" font-family="Arial" font-size="14.00">(Docker::Volume)</text>
</g>
<!-- container&#45;pg&#45;&gt;postgres&#45;data -->
<g id="edge1" class="edge">
<title>container&#45;pg&#45;&gt;postgres&#45;data</title>
<path fill="none" stroke="black" d="M69.08,-107.7C69.08,-99.93 69.08,-91.57 69.08,-83.43"/>
<polygon fill="black" stroke="black" points="72.58,-83.66 69.08,-73.66 65.58,-83.66 72.58,-83.66"/>
</g>
<!-- container&#45;pgadmin -->
<g id="node2" class="node">
<title>container&#45;pgadmin</title>
<path fill="#e6e6e6" stroke="black" stroke-width="2" d="M126.15,-288C126.15,-288 12,-288 12,-288 6,-288 0,-282 0,-276 0,-276 0,-228 0,-228 0,-222 6,-216 12,-216 12,-216 126.15,-216 126.15,-216 132.15,-216 138.15,-222 138.15,-228 138.15,-228 138.15,-276 138.15,-276 138.15,-282 132.15,-288 126.15,-288"/>
<text text-anchor="middle" x="69.08" y="-256.2" font-family="Arial" font-size="14.00">container&#45;pgadmin</text>
<text text-anchor="middle" x="69.08" y="-239.4" font-family="Arial" font-size="14.00">(Docker::Container)</text>
</g>
<!-- container&#45;pgadmin&#45;&gt;container&#45;pg -->
<g id="edge2" class="edge">
<title>container&#45;pgadmin&#45;&gt;container&#45;pg</title>
<path fill="none" stroke="black" d="M69.08,-215.7C69.08,-207.93 69.08,-199.57 69.08,-191.43"/>
<polygon fill="black" stroke="black" points="72.58,-191.66 69.08,-181.66 65.58,-191.66 72.58,-191.66"/>
</g>
</g>
</svg>
