<?xml version="1.0" encoding="UTF-8" standalone="no"?>
<!DOCTYPE svg PUBLIC "-//W3C//DTD SVG 1.1//EN"
 "http://www.w3.org/Graphics/SVG/1.1/DTD/svg11.dtd">
<!-- Generated by graphviz version 12.1.1 (20240910.0053)
 -->
<!-- Title: INFRA Pages: 1 -->
<svg width="290pt" height="188pt"
 viewBox="0.00 0.00 289.53 188.00" xmlns="http://www.w3.org/2000/svg" xmlns:xlink="http://www.w3.org/1999/xlink">
<g id="graph0" class="graph" transform="scale(1 1) rotate(0) translate(4 184)">
<title>INFRA</title>
<polygon fill="white" stroke="none" points="-4,4 -4,-184 285.53,-184 285.53,4 -4,4"/>
<!-- container&#45;pg -->
<g id="node1" class="node">
<title>container&#45;pg</title>
<path fill="#ffcfb3" stroke="black" stroke-width="2" d="M138.15,-65.45C138.15,-69.07 107.19,-72 69.08,-72 30.96,-72 0,-69.07 0,-65.45 0,-65.45 0,-6.55 0,-6.55 0,-2.93 30.96,0 69.08,0 107.19,0 138.15,-2.93 138.15,-6.55 138.15,-6.55 138.15,-65.45 138.15,-65.45"/>
<path fill="none" stroke="black" stroke-width="2" d="M138.15,-65.45C138.15,-61.84 107.19,-58.91 69.08,-58.91 30.96,-58.91 0,-61.84 0,-65.45"/>
<text text-anchor="middle" x="69.08" y="-40.2" font-family="Arial" font-size="14.00">container&#45;pg</text>
<text text-anchor="middle" x="69.08" y="-23.4" font-family="Arial" font-size="14.00">(Docker::Container)</text>
</g>
<!-- container&#45;pgadmin -->
<g id="node2" class="node">
<title>container&#45;pgadmin</title>
<path fill="#e6e6e6" stroke="black" stroke-width="2" d="M126.15,-180C126.15,-180 12,-180 12,-180 6,-180 0,-174 0,-168 0,-168 0,-120 0,-120 0,-114 6,-108 12,-108 12,-108 126.15,-108 126.15,-108 132.15,-108 138.15,-114 138.15,-120 138.15,-120 138.15,-168 138.15,-168 138.15,-174 132.15,-180 126.15,-180"/>
<text text-anchor="middle" x="69.08" y="-148.2" font-family="Arial" font-size="14.00">container&#45;pgadmin</text>
<text text-anchor="middle" x="69.08" y="-131.4" font-family="Arial" font-size="14.00">(Docker::Container)</text>
</g>
<!-- container&#45;pgadmin&#45;&gt;container&#45;pg -->
<g id="edge1" class="edge">
<title>container&#45;pgadmin&#45;&gt;container&#45;pg</title>
<path fill="none" stroke="black" d="M69.08,-107.7C69.08,-99.93 69.08,-91.57 69.08,-83.43"/>
<polygon fill="black" stroke="black" points="72.58,-83.66 69.08,-73.66 65.58,-83.66 72.58,-83.66"/>
</g>
<!-- postgres&#45;data -->
<g id="node3" class="node">
<title>postgres&#45;data</title>
<path fill="#fff5cd" stroke="black" stroke-width="2" d="M281.53,-173.45C281.53,-177.07 253.54,-180 219.08,-180 184.61,-180 156.62,-177.07 156.62,-173.45 156.62,-173.45 156.62,-114.55 156.62,-114.55 156.62,-110.93 184.61,-108 219.08,-108 253.54,-108 281.53,-110.93 281.53,-114.55 281.53,-114.55 281.53,-173.45 281.53,-173.45"/>
<path fill="none" stroke="black" stroke-width="2" d="M281.53,-173.45C281.53,-169.84 253.54,-166.91 219.08,-166.91 184.61,-166.91 156.62,-169.84 156.62,-173.45"/>
<text text-anchor="middle" x="219.08" y="-148.2" font-family="Arial" font-size="14.00">postgres&#45;data</text>
<text text-anchor="middle" x="219.08" y="-131.4" font-family="Arial" font-size="14.00">(Docker::Volume)</text>
</g>
</g>
</svg>
